# xmcd
#
# Track frame offsets:
#	150
#	16792
#	27152
#	44075
#	60562
#	75470
#	90222
#	104047
#	121210
#	132615
#	146192
#	159180
#	169597
#	182217
#	196642
#	207935
#	219782
#	233060
#	244850
#	256785
#	269967
#	282447
#	295900
#	309872
#	324710
#	338170
#
# Disc length: 4680 seconds
#
# Revision: 1
# Processed by: cddbd v1.5PL3 Copyright (c) Steve Scherf et al.
# Submitted via: audiograbber 1.83.01
#
DISCID=7612461a
DTITLE=Bruce Low - 12 Uhr Mittags
DYEAR=1900
DGENRE=
TTITLE0=Sag, warum willst Du von mir gehen (12 Uhr mittags)
TTITLE1=Wenn die Sonne scheint in Texas
TTITLE2=Tabak und Rum
TTITLE3=High Noon
TTITLE4=Goldgr‰ber Jonny
TTITLE5=Reiterballade
TTITLE6=Heimwehlied
TTITLE7=In der Sierra Nevada
TTITLE8=Zwei Freunde
TTITLE9=Weit, weit in der Sierra
TTITLE10=Und es weht der Wind
TTITLE11=Der Tom aus Tennessee
TTITLE12=Wilde Rose von Arizona
TTITLE13=Ole O¥Camgaceiro
TTITLE14=Just Walkin`In The Rain
TTITLE15=Cindy, oh Cindy
TTITLE16=High Noon (Neuaufnahme)
TTITLE17=Maultierpost
TTITLE18=Chattanooga Shoe Shine Boy
TTITLE19=Ghostriders In The Sky
TTITLE20=Kleiner Cowboy, Du muﬂt reiten
TTITLE21=Leise rauscht es am Missouri
TTITLE22=Heimweh nach Virginia
TTITLE23=Tennessee Waltz
TTITLE24=Sing das Lied von Carolina
TTITLE25=Nimm mich mit zu den blauen Bergen
EXTD=Alle Songs stammen aus den 50er Jahren.
EXTT0=
EXTT1=
EXTT2=
EXTT3=
EXTT4=
EXTT5=
EXTT6=
EXTT7=
EXTT8=
EXTT9=
EXTT10=
EXTT11=
EXTT12=
EXTT13=
EXTT14=
EXTT15=
EXTT16=
EXTT17=
EXTT18=
EXTT19=
EXTT20=
EXTT21=
EXTT22=
EXTT23=
EXTT24=
EXTT25=
PLAYORDER=
